<?xml version="1.0" encoding="utf-8"?>
<!-- Generator: Adobe Illustrator 24.0.1, SVG Export Plug-In . SVG Version: 6.00 Build 0)  -->
<svg version="1.1" id="Layer_1" xmlns="http://www.w3.org/2000/svg" xmlns:xlink="http://www.w3.org/1999/xlink" x="0px" y="0px"
	 viewBox="0 0 1080 1080" style="enable-background:new 0 0 1080 1080;" xml:space="preserve">
<style type="text/css">
	.st0{fill:#043E68;}
	.st1{fill:#ADACB1;}
	.st2{fill:#037ABC;}
</style>
<g>
	<path class="st0" d="M658.55,758.71c-34-2.81-75.21,5.47-115.49-3.82c-77.88-17.97-130.05-66.58-147.88-143.52
		c-32.27-139.22-59.59-279.59-88.58-419.56c-6.06-29.27,11.46-55.3,38.95-60.38c27.23-5.04,52.86,11.62,58.74,39.11
		c20.14,94.17,40.74,188.25,59.53,282.69c8.35,41.97,18.57,83.51,23.96,126.28c5.72,45.38,49.88,78.33,96.41,78.54
		c57.91,0.26,115.83-0.01,173.74,0.15c35.84,0.1,58.98,19.04,60.13,48.74c1.13,28.96-19.86,51.43-48.98,51.7
		C734.47,758.95,699.86,758.71,658.55,758.71z"/>
	<path class="st1" d="M572.82,958.44c-45.21-0.03-90.43,0.1-135.64-0.08c-30.27-0.12-42.13-18.87-29.37-46.26
		c20.56-44.14,41.03-88.31,62.01-132.25c9.77-20.47,25.24-27.06,42.52-19.46c15.85,6.97,20.87,22.66,11.99,43.33
		c-10.85,25.26-22.2,50.36-34.89,74.73c-8.64,16.59-5.76,21.07,13.08,20.81c64.28-0.87,128.58-0.32,192.86-0.44
		c9.24-0.02,18.28,0.24,27.01,3.86c14.59,6.04,20.39,17.61,17.97,32.23c-2.43,14.7-11.21,23.73-27.65,23.64
		C666.08,958.31,619.45,958.47,572.82,958.44z"/>
	<path class="st2" d="M418.98,179.95c-2.98-24.92,5.89-36.3,22.41-39.28c16.72-3.01,28.9,5.43,32.79,22.49
		c7.34,32.25,14.51,64.55,20.71,97.03c3.8,19.93-7.05,35.23-24.46,37.4c-20.1,2.5-29.63-7.41-33.39-29.57
		C431.64,236.18,424.14,204.68,418.98,179.95z"/>
	<path class="st1" d="M565.11,563.87c-15.51,0.02-31.06-0.7-46.52,0.21c-18.98,1.12-28.19-10.45-30.03-25.88
		c-1.81-15.18,6.88-27.7,23.34-30.19c36.34-5.5,72.95-5.47,109.24-0.12c17.54,2.59,24.48,16,22.2,32.84
		c-2.23,16.51-12.76,23.86-29.6,23.24C597.56,563.38,581.33,563.85,565.11,563.87z"/>
</g>
</svg>
